<svg xmlns="http://www.w3.org/2000/svg" viewBox="0 0 32 32" width="32" height="32">
  <!-- Open book / reflection symbol -->
  <defs>
    <linearGradient id="water" x1="0" y1="0" x2="0" y2="1">
      <stop offset="0%" stop-color="#79b8d4" stop-opacity="0.8"/>
      <stop offset="100%" stop-color="#4a90a4" stop-opacity="1"/>
    </linearGradient>
  </defs>
  <!-- Water/reflection circle -->
  <circle cx="16" cy="16" r="14" fill="url(#water)"/>
  <!-- Open book shape -->
  <path d="M16 8 C16 8, 9 7, 7 9 L7 22 C9 20.5, 15 20, 16 22 C17 20, 23 20.5, 25 22 L25 9 C23 7, 16 8, 16 8 Z"
        fill="none" stroke="white" stroke-width="1.5" stroke-linejoin="round"/>
  <!-- Book spine -->
  <line x1="16" y1="8" x2="16" y2="22" stroke="white" stroke-width="1" opacity="0.7"/>
  <!-- Ripple lines beneath -->
  <path d="M10 25 Q13 24, 16 25 Q19 26, 22 25" fill="none" stroke="white" stroke-width="0.8" opacity="0.5"/>
  <path d="M11 27 Q14 26, 16 27 Q18 28, 21 27" fill="none" stroke="white" stroke-width="0.6" opacity="0.3"/>
</svg>
